<svg xmlns="http://www.w3.org/2000/svg" width="20.427" height="22" viewBox="0 0 20.427 22">
  <g id="add-user" transform="translate(-48.042 -32)">
    <path id="Path_183" data-name="Path 183" d="M272,292.714A4.714,4.714,0,1,0,276.714,288,4.714,4.714,0,0,0,272,292.714Zm1.964-.393h2.357v-2.357a.393.393,0,0,1,.786,0v2.357h2.357a.393.393,0,1,1,0,.786h-2.357v2.357a.393.393,0,0,1-.786,0v-2.357h-2.357a.393.393,0,1,1,0-.786Z" transform="translate(-212.96 -243.429)" fill="#fff"/>
    <path id="Path_184" data-name="Path 184" d="M59.069,219.521a5.5,5.5,0,0,1,3.5-8.249,7.64,7.64,0,0,0-12.092-.578,10.71,10.71,0,0,0-2.433,6.889,20.377,20.377,0,0,0,8.248,2.2A15.327,15.327,0,0,0,59.069,219.521Z" transform="translate(0 -167.357)" fill="#fff"/>
    <circle id="Ellipse_87" data-name="Ellipse 87" cx="3.929" cy="3.929" r="3.929" transform="translate(52.361 32)" fill="#fff"/>
  </g>
</svg>
