<svg xmlns="http://www.w3.org/2000/svg" width="34" height="26" viewBox="0 0 34 26">
  <path id="AppStore_Icon" data-name="AppStore Icon" d="M18,26H12A12,12,0,0,1,0,14V12A12,12,0,0,1,12,0h6A12,12,0,0,1,30,12v2A12,12,0,0,1,18,26ZM8.305,17.54l-.8,1.353a1,1,0,0,0,1.724,1.013l1.391-2.366Zm8.483-8.493-1.156,1.981L17.7,14.542,18.916,16.6l1.94,3.3a.994.994,0,0,0,.864.492,1,1,0,0,0,.861-1.5L21.2,16.542h2.093a1,1,0,0,0,0-2h-3.27ZM6.8,14.542a1,1,0,1,0,0,2H17.72l-1.181-2H12.391l4.031-6.854.99-1.679a1,1,0,1,0-1.725-1.014l-.642,1.092L14.4,4.994a1,1,0,1,0-1.724,1.014l1.207,2.049L10.07,14.542ZM24.237,25.49h0c-.009,0-.231-.025-.233-.071,0-.028.078-.058.237-.089a9.532,9.532,0,0,0,5.8-3.89,12.854,12.854,0,0,0,2.335-7.488V12.029a12.853,12.853,0,0,0-2.337-7.492,9.53,9.53,0,0,0-5.8-3.888C24.077.618,24,.588,24,.561c0-.046.227-.07.237-.071C29.62.49,34,5.666,34,12.029v1.923C34,20.314,29.62,25.49,24.237,25.49Z" fill="#757575"/>
</svg>
