<svg xmlns="http://www.w3.org/2000/svg" width="15.469" height="24" viewBox="0 0 15.469 24">
  <g id="auto-flash" transform="translate(-91)">
    <path id="Path_176" data-name="Path 176" d="M103.551.334a.7.7,0,0,0-.6-.334H94.516a.7.7,0,0,0-.682.533l-2.812,11.3a.7.7,0,0,0,.682.873h3.318L92.427,23.126a.7.7,0,0,0,1.231.61l11.25-14.109a.7.7,0,0,0-.549-1.143H99.872l3.71-7.467a.7.7,0,0,0-.031-.684Z" fill="#fff"/>
    <path id="Path_177" data-name="Path 177" d="M275.162,333.288a.732.732,0,0,0-1.306,0l-2.812,7.031a.7.7,0,1,0,1.306.522l.948-2.37h2.423l.948,2.37a.7.7,0,0,0,1.306-.522Zm-1.3,3.776.649-1.623.649,1.623Z" transform="translate(-171.556 -317.283)" fill="#fff"/>
  </g>
</svg>
