<svg xmlns="http://www.w3.org/2000/svg" width="31.999" height="24.001" viewBox="0 0 31.999 24.001">
  <path id="Camera_Icon" data-name="Camera Icon" d="M29.937,24H2.063A2.076,2.076,0,0,1,0,21.917V6.781A2.075,2.075,0,0,1,2.063,4.7H6.969a1.156,1.156,0,0,0,.954-.506L10.205.824A2.372,2.372,0,0,1,11.866,0h8.268a2.366,2.366,0,0,1,1.66.824l2.272,3.35a1.193,1.193,0,0,0,.985.524h4.886A2.075,2.075,0,0,1,32,6.781V21.917A2.076,2.076,0,0,1,29.937,24ZM16,6.784a7.3,7.3,0,1,0,7.225,7.3A7.273,7.273,0,0,0,16,6.784Zm8.774-.522a1.044,1.044,0,1,0,1.031,1.044A1.039,1.039,0,0,0,24.774,6.262ZM16,19.827a5.739,5.739,0,1,1,5.677-5.739A5.715,5.715,0,0,1,16,19.827ZM6.193,3.131H2.064V2.088A1.039,1.039,0,0,1,3.1,1.044H5.162A1.038,1.038,0,0,1,6.193,2.088V3.13Z" fill="#757575"/>
</svg>
