<svg id="Component_4_19" data-name="Component 4 – 19" xmlns="http://www.w3.org/2000/svg" width="45" height="47" viewBox="0 0 45 47">
  <rect id="Rectangle_1580" data-name="Rectangle 1580" width="45" height="47" fill="#fff" opacity="0"/>
  <g id="Glyphs_Tab_Bar_Games" data-name="Glyphs/Tab Bar/Games" transform="translate(1.454 21.038) rotate(-40)">
    <path id="Icon" d="M8.733,24a.224.224,0,0,1-.165-.075.236.236,0,0,1-.059-.182c0-.037.387-3.783.466-4.584a.121.121,0,0,0-.031-.093.117.117,0,0,0-.086-.038H8.84A10.559,10.559,0,0,1,7.7,19.14a.778.778,0,0,1-.163-.013A13.555,13.555,0,0,1,5.009,17a6.311,6.311,0,0,1-.1-1.292.108.108,0,0,0-.107-.107.105.105,0,0,0-.027,0l-4.524,1.2a.2.2,0,0,1-.052.007.2.2,0,0,1-.2-.2,9.411,9.411,0,0,1,2.283-6.2A5.1,5.1,0,0,1,5.958,9.27c.178,0,.359,0,.537.014h.012a.2.2,0,0,0,.176-.106A11.992,11.992,0,0,1,8.474,6.73C14.48.457,20.43.023,21.561,0a.213.213,0,0,1,.213.177c.2,1.136.918,7.158-4.807,14.179a12.51,12.51,0,0,1-1.961,1.914.2.2,0,0,0-.076.2c.218,1.1.445,3.121-.485,4.3A9.254,9.254,0,0,1,8.768,24ZM14.756,5.893a2.269,2.269,0,0,0-.345.027A2.2,2.2,0,0,0,12.6,7.752a2.235,2.235,0,0,0,.508,1.8,2.177,2.177,0,0,0,1.651.761,2.269,2.269,0,0,0,.345-.027,2.195,2.195,0,0,0,1.813-1.831,2.236,2.236,0,0,0-.508-1.8A2.176,2.176,0,0,0,14.756,5.893ZM3.313,22.764a6.2,6.2,0,0,1-.933-.063,7.386,7.386,0,0,1-.261-2.633,3.221,3.221,0,0,1,.7-1.715,2.249,2.249,0,0,1,1.444-.863c.141,0,.235.047.271.136.1.263.01.377-.148.567a2.346,2.346,0,0,0-.551,1.167,2.224,2.224,0,0,0,.113,1.428c.01.019.013.026.012.028h0a.1.1,0,0,1,.024.007,1.121,1.121,0,0,0,.12.038,1.549,1.549,0,0,0,.384.045,2.591,2.591,0,0,0,.91-.185A2.423,2.423,0,0,0,6.464,20c.137-.15.227-.25.4-.25a.621.621,0,0,1,.144.019.225.225,0,0,1,.156.167,2.148,2.148,0,0,1-.6,1.655,3.172,3.172,0,0,1-1.569.966A6.747,6.747,0,0,1,3.313,22.764Z" transform="translate(3.5 3)" fill="#f90202"/>
  </g>
</svg>
