<svg id="Component_6_17" data-name="Component 6 – 17" xmlns="http://www.w3.org/2000/svg" width="42" height="39" viewBox="0 0 42 39">
  <rect id="Rectangle_1583" data-name="Rectangle 1583" width="42" height="39" fill="#fff" opacity="0"/>
  <g id="Icon_material-camera-alt" data-name="Icon material-camera-alt" transform="translate(4.333 1)">
    <path id="Path_373" data-name="Path 373" d="M22.8,18A4.8,4.8,0,1,1,18,13.2,4.8,4.8,0,0,1,22.8,18Z" transform="translate(-1.667 -1.759)" fill="#fefefe"/>
    <path id="Path_374" data-name="Path 374" d="M12.333,3,9.893,5.667H5.667A2.675,2.675,0,0,0,3,8.333v16A2.675,2.675,0,0,0,5.667,27H27a2.675,2.675,0,0,0,2.667-2.667v-16A2.675,2.675,0,0,0,27,5.667H22.773L20.333,3Zm4,20A6.667,6.667,0,1,1,23,16.333,6.669,6.669,0,0,1,16.333,23Z" fill="#fefefe"/>
  </g>
</svg>
