<svg id="Component_25_7" data-name="Component 25 – 7" xmlns="http://www.w3.org/2000/svg" width="21.135" height="19.726" viewBox="0 0 21.135 19.726">
  <g id="Component_23_4" data-name="Component 23 – 4">
    <g id="like" transform="translate(0 0)">
      <g id="Group_467" data-name="Group 467" transform="translate(0 0)">
        <g id="Group_466" data-name="Group 466" transform="translate(0)">
          <path id="Path_366" data-name="Path 366" d="M34.079,254.149H31.261a.7.7,0,0,1-.7-.7V242.173a.7.7,0,0,1,.7-.7h2.818a.7.7,0,0,1,.7.7v11.272A.7.7,0,0,1,34.079,254.149Z" transform="translate(-30.556 -241.468)" fill="#fff"/>
        </g>
      </g>
      <g id="Group_469" data-name="Group 469" transform="translate(5.636 0)">
        <g id="Group_468" data-name="Group 468" transform="translate(0)">
          <path id="Path_367" data-name="Path 367" d="M166.279,101.986a2.216,2.216,0,0,1-2.245,1.867h-5.493a12.164,12.164,0,0,1,.706,4.166,2.934,2.934,0,0,1-2.941,2.88h-.581a.7.7,0,0,1-.7-.7c0-1.629-.634-4.57-1.831-5.766a7.8,7.8,0,0,0-2.4-1.548V92.308a16.458,16.458,0,0,1,5.811-1.136h4.609a2.142,2.142,0,0,1,2.113,2.892,2.114,2.114,0,0,1,1.409,2.818,2.115,2.115,0,0,1,1.018,3.448A2.109,2.109,0,0,1,166.279,101.986Z" transform="translate(-150.794 -91.172)" fill="#fff"/>
        </g>
      </g>
    </g>
  </g>
</svg>
