<svg id="Component_5_34" data-name="Component 5 – 34" xmlns="http://www.w3.org/2000/svg" width="20" height="24" viewBox="0 0 20 24">
  <g id="bell" transform="translate(-2)">
    <path id="Path_13" data-name="Path 13" d="M21.379,16.913A6.7,6.7,0,0,1,19,11.788V9a7.006,7.006,0,0,0-6-6.92V1a1,1,0,0,0-2,0V2.08A7,7,0,0,0,5,9v2.788a6.705,6.705,0,0,1-2.388,5.133A1.75,1.75,0,0,0,3.75,20h16.5a1.75,1.75,0,0,0,1.129-3.087Z" fill="#f90202"/>
    <path id="Path_14" data-name="Path 14" d="M12,24a3.756,3.756,0,0,0,3.674-3H8.326A3.756,3.756,0,0,0,12,24Z" fill="#f90202"/>
  </g>
</svg>
