<svg id="contact" xmlns="http://www.w3.org/2000/svg" width="18" height="18" viewBox="0 0 18 18">
  <g id="Group_432" data-name="Group 432" transform="translate(8.473 8.473)">
    <g id="Group_431" data-name="Group 431">
      <path id="Path_350" data-name="Path 350" d="M250,249.473h-4.236a3.709,3.709,0,1,1,3.709-3.709.885.885,0,0,1-1.769,0,1.943,1.943,0,1,0-.527,1.327,1.938,1.938,0,0,0,3.352-1.327,4.764,4.764,0,1,0-4.764,4.764H250a.527.527,0,0,0,0-1.055Zm-4.236-2.824a.885.885,0,1,1,.885-.885A.886.886,0,0,1,245.764,246.648Z" transform="translate(-241 -241)" fill="#fff"/>
    </g>
  </g>
  <g id="Group_434" data-name="Group 434">
    <g id="Group_433" data-name="Group 433">
      <path id="Path_351" data-name="Path 351" d="M12.605,7.452a5.611,5.611,0,1,0-7.829,3.166A7.318,7.318,0,0,0,0,17.473.527.527,0,0,0,.527,18H9.9A5.816,5.816,0,0,1,12.605,7.452Z" fill="#fff"/>
    </g>
  </g>
</svg>
