<svg xmlns="http://www.w3.org/2000/svg" width="18" height="18" viewBox="0 0 18 18">
  <path id="dumbell" d="M9.1,14.221a1.439,1.439,0,0,1,0,2.036l-1.27,1.27a1.441,1.441,0,0,1-2.036,0L.476,12.214a1.442,1.442,0,0,1,0-2.036l1.27-1.27a1.439,1.439,0,0,1,2.036,0ZM.69,13.6a.289.289,0,0,0-.446.048,1.428,1.428,0,0,0,.181,1.805l2.128,2.128a1.428,1.428,0,0,0,1.8.181.289.289,0,0,0,.048-.446ZM9.969,6.073a.577.577,0,0,0-.815,0L6.077,9.151a.576.576,0,0,0,0,.815l1.961,1.961a.577.577,0,0,0,.815,0L11.93,8.849a.576.576,0,0,0,0-.815ZM17.317,4.4a.289.289,0,0,0,.446-.048,1.428,1.428,0,0,0-.182-1.8L15.454.421a1.428,1.428,0,0,0-1.8-.182A.289.289,0,0,0,13.6.686ZM12.217.472a1.442,1.442,0,0,0-2.036,0l-1.27,1.27a1.439,1.439,0,0,0,0,2.036l5.314,5.314a1.439,1.439,0,0,0,2.036,0l1.27-1.27a1.442,1.442,0,0,0,0-2.036Z" transform="translate(-0.003 0)" fill="#f90202"/>
</svg>
