<svg id="forward_5" data-name="forward 5" xmlns="http://www.w3.org/2000/svg" width="21.957" height="24.912" viewBox="0 0 21.957 24.912">
  <path id="Path_344" data-name="Path 344" d="M1.722,8.464A1.255,1.255,0,1,1,3.848,9.8,8.5,8.5,0,1,0,11.3,5.845l1.594,1.59A1.254,1.254,0,0,1,12,9.561a1.233,1.233,0,0,1-.884-.366L7.683,5.764a.727.727,0,0,0-.047-.06l-.085-.1c-.021-.034-.043-.068-.06-.1a.914.914,0,0,1-.06-.111c0-.038-.034-.081-.047-.119s-.021-.051-.03-.081a.094.094,0,0,0,0-.034c0-.043,0-.085,0-.123a.651.651,0,0,1,0-.128v-.03a.523.523,0,0,1,0-.081,1.343,1.343,0,0,1,0-.136l.026-.1.021-.1a1.02,1.02,0,0,1,.047-.1c0-.038.038-.081.064-.119a1.033,1.033,0,0,1,.06-.085l.089-.123V4L11.118.573a1.276,1.276,0,0,1,1.773,1.76L11.875,3.349a10.978,10.978,0,1,1-10.153,5.1Z" transform="translate(-0.038 -0.36)" fill="#fff"/>
  <path id="Path_345" data-name="Path 345" d="M21.763,34.566a2.976,2.976,0,0,1-2.67-1.7.85.85,0,1,1,1.505-.723,1.3,1.3,0,0,0,1.165.77,1.286,1.286,0,0,0,0-2.572H20.586a.85.85,0,0,1-.85-.85V27.04a.85.85,0,0,1,.85-.85h3.048a.85.85,0,0,1,0,1.675H21.423v.8h.34a2.976,2.976,0,0,1,0,5.918Z" transform="translate(-10.895 -15.208)" fill="#fff"/>
</svg>
