<svg xmlns="http://www.w3.org/2000/svg" width="32" height="32" viewBox="0 0 32 32">
  <g id="Group_771" data-name="Group 771" transform="translate(-305 -329)">
    <path id="Icon_awesome-envelope" data-name="Icon awesome-envelope" d="M20.929,9.783a.251.251,0,0,1,.4.2V18.5a2,2,0,0,1-2,2H2a2,2,0,0,1-2-2V9.983a.249.249,0,0,1,.4-.2c.933.725,2.171,1.646,6.421,4.733.879.642,2.362,1.992,3.842,1.983,1.488.012,3-1.367,3.846-1.983C18.762,11.433,20,10.508,20.929,9.783ZM10.667,15.167c.967.017,2.358-1.217,3.058-1.725,5.529-4.012,5.95-4.363,7.225-5.363a1,1,0,0,0,.383-.787V6.5a2,2,0,0,0-2-2H2a2,2,0,0,0-2,2v.792a1,1,0,0,0,.383.787c1.275,1,1.7,1.35,7.225,5.363C8.308,13.95,9.7,15.183,10.667,15.167Z" transform="translate(310 332.062)" fill="#fff"/>
    <rect id="Rectangle_1611" data-name="Rectangle 1611" width="32" height="32" transform="translate(305 329)" fill="#fff" opacity="0"/>
  </g>
</svg>
