<svg xmlns="http://www.w3.org/2000/svg" width="32.018" height="32" viewBox="0 0 32.018 32">
  <g id="Group_751" data-name="Group 751" transform="translate(93 -714)">
    <g id="cinema" transform="translate(-92.998 713.586)">
      <path id="Path_9" data-name="Path 9" d="M240.182,232.093l3.145-2.573-2.078.377a12,12,0,0,1-4.316,0l-2.078-.377L238,232.093A1.728,1.728,0,0,0,240.182,232.093Zm0,0" transform="translate(-217.99 -212.652)" fill="#f90202"/>
      <path id="Path_10" data-name="Path 10" d="M150.441,24.5a4.035,4.035,0,0,0,4.613,0l1.5-1.052A16.676,16.676,0,0,0,163.664,9.8V3.336a1.724,1.724,0,0,0-1.305-1.672l-.553-.139a37.471,37.471,0,0,0-18.115,0l-.553.139a1.723,1.723,0,0,0-1.305,1.672V9.8a16.675,16.675,0,0,0,7.107,13.65ZM154.094,9.15a4.6,4.6,0,0,1,6.5,0l-.784.841a3.448,3.448,0,0,0-4.9-.029l-.841-.784Zm-9.221.029.029-.029a4.6,4.6,0,0,1,6.5,0l-.784.841a3.448,3.448,0,0,0-4.9-.029Zm1.191,7.171a.575.575,0,0,1,.467-1.01l4.264.776a10.885,10.885,0,0,0,3.907,0l4.264-.776a.575.575,0,0,1,.467,1.01l-4.866,3.979a2.881,2.881,0,0,1-3.638,0Zm0,0" transform="translate(-131.648)" fill="#f90202"/>
      <path id="Path_11" data-name="Path 11" d="M141.012,330.509l-2.1.173,3.7,1.666a1.724,1.724,0,0,0,2.111-.563l1.246-1.733-.4-.278c-.161-.115-.314-.234-.471-.352A12.025,12.025,0,0,1,141.012,330.509Zm0,0" transform="translate(-128.936 -305.379)" fill="#f90202"/>
      <path id="Path_12" data-name="Path 12" d="M1.731,125.121a16.673,16.673,0,0,0,10.4,11.34l1.724.632a4.043,4.043,0,0,0,4.458-1.2l1.177-1.407a16.392,16.392,0,0,0,2.121-3.233c-.169.017-.338.038-.508.038a5.166,5.166,0,0,1-2.965-.931l-.164-.115-1.253,1.744a2.873,2.873,0,0,1-3.519.941l-5.728-2.585a.574.574,0,0,1,.19-1.1l4.32-.351a10.85,10.85,0,0,0,3.164-.76,17.823,17.823,0,0,1-6.112-13.42v-1.271a37.525,37.525,0,0,0-7.65,3.193l-.5.276a1.715,1.715,0,0,0-.826,1.95Zm2.223-.855a4.6,4.6,0,0,1,6.279-1.682L9.7,123.6a3.447,3.447,0,0,0-4.748,1.239l-.517-.252-.5-.287Zm0,0" transform="translate(0 -104.917)" fill="#f90202"/>
    </g>
  </g>
</svg>
