<svg xmlns="http://www.w3.org/2000/svg" width="30.333" height="23.167" viewBox="0 0 30.333 23.167">
  <g id="Group_115" data-name="Group 115" transform="translate(-134 -502)">
    <g id="comment" transform="translate(134 498.417)">
      <path id="Path_19" data-name="Path 19" d="M0,26.75V11.908A8.335,8.335,0,0,1,8.325,3.583H22.006a8.336,8.336,0,0,1,8.327,8.325v2.56a8.335,8.335,0,0,1-8.325,8.325H8.518ZM8.325,5.439a6.476,6.476,0,0,0-6.469,6.469V23.841l6.253-2.905h13.9a6.476,6.476,0,0,0,6.469-6.469v-2.56a6.477,6.477,0,0,0-6.471-6.469H8.325Zm.612,6.328a1.765,1.765,0,1,1-1.765,1.765A1.765,1.765,0,0,1,8.937,11.767Zm12.458,0a1.765,1.765,0,1,1-1.765,1.765A1.765,1.765,0,0,1,21.4,11.767Zm-6.23,0A1.765,1.765,0,1,1,13.4,13.532,1.765,1.765,0,0,1,15.165,11.767Z" fill="#f90202"/>
    </g>
  </g>
</svg>
