<svg xmlns="http://www.w3.org/2000/svg" width="31.995" height="32" viewBox="0 0 31.995 32">
  <g id="Group_749" data-name="Group 749" transform="translate(-103 -714)">
    <g id="world" transform="translate(102.996 714)">
      <g id="Group_512" data-name="Group 512" transform="translate(0.004)">
        <path id="Path_375" data-name="Path 375" d="M29.027,7.039l-.479.152L26,7.418l-.72,1.15L24.756,8.4,22.727,6.572l-.294-.951-.394-1.015L20.763,3.462l-1.5-.294-.035.689L20.7,5.295l.721.85-.811.424-.66-.195-.989-.413.034-.8L17.7,4.63,17.264,6.5l-1.308.3.129,1.046,1.7.328L18.084,6.5l1.407.208.654.383h1.049l.718,1.438,1.9,1.931-.14.751-1.535-.2-2.652,1.339-1.91,2.291-.249,1.015h-.686l-1.277-.589-1.241.589.309,1.309.54-.622.949-.03L15.859,17.5l.786.23.785.882,1.282-.361,1.465.231,1.7.457.85.1,1.44,1.635,2.78,1.635-1.8,3.435-1.9.882-.72,1.963-2.746,1.833-.292,1.057A15.979,15.979,0,0,0,29.027,7.039Z" transform="translate(0.259 0.059)" fill="#f90202"/>
        <path id="Path_376" data-name="Path 376" d="M17.841,24.222l-1.165-2.16,1.07-2.229-1.07-.32-1.2-1.206-2.661-.6-.883-1.848v1.1h-.389L9.249,13.85V11.3L7.568,8.564,4.9,9.04H3.1l-.9-.593,1.154-.915L2.2,7.8A15.978,15.978,0,0,0,16,31.86a16.749,16.749,0,0,0,2.008-.14l-.167-1.938s.734-2.879.734-2.976S17.841,24.222,17.841,24.222Z" transform="translate(-0.004 0.14)" fill="#f90202"/>
        <path id="Path_377" data-name="Path 377" d="M5.882,5.159l2.842-.4,1.31-.718,1.474.425,2.355-.13.807-1.268,1.176.194L18.7,3l.787-.868,1.11-.742,1.571.236.572-.087A15.947,15.947,0,0,0,3.6,5.817H3.6ZM16.609,1.591l1.634-.9,1.049.606L17.774,2.454l-1.45.146-.653-.424Zm-4.839.131.721.3.944-.3.514.891-2.18.572-1.048-.613S11.747,1.913,11.77,1.722Z" transform="translate(0.063)" fill="#f90202"/>
      </g>
    </g>
  </g>
</svg>
