<svg xmlns="http://www.w3.org/2000/svg" width="41.5" height="12" viewBox="0 0 41.5 12">
  <g id="Group_775" data-name="Group 775" transform="translate(2709 -194)">
    <path id="Icon_awesome-volume-down" data-name="Icon awesome-volume-down" d="M6.72,4.79,3.939,7.57H.75A.75.75,0,0,0,0,8.32v4.5a.75.75,0,0,0,.75.75H3.939l2.78,2.78A.75.75,0,0,0,8,15.82V5.321A.751.751,0,0,0,6.72,4.79Zm3.85,3.377a.75.75,0,1,0-.724,1.314,1.232,1.232,0,0,1,0,2.176.75.75,0,0,0,.724,1.314,2.732,2.732,0,0,0,0-4.8Z" transform="translate(-2709 189.43)"/>
    <line id="Line_7" data-name="Line 7" y2="8" transform="translate(-2688.5 195.5)" fill="none" stroke="#f90202" stroke-width="2"/>
    <line id="Line_8" data-name="Line 8" y2="8" transform="translate(-2684.5 195.5)" fill="none" stroke="#f90202" stroke-width="2"/>
    <line id="Line_9" data-name="Line 9" y2="8" transform="translate(-2680.5 195.5)" fill="none" stroke="#f90202" stroke-width="2"/>
    <line id="Line_10" data-name="Line 10" y2="8" transform="translate(-2676.5 195.5)" fill="none" stroke="#f90202" stroke-width="2"/>
    <line id="Line_11" data-name="Line 11" y2="8" transform="translate(-2672.5 195.5)" fill="none" stroke="#fefefe" stroke-width="2"/>
    <line id="Line_12" data-name="Line 12" y2="8" transform="translate(-2668.5 195.5)" fill="none" stroke="#fefefe" stroke-width="2"/>
  </g>
</svg>
