<svg xmlns="http://www.w3.org/2000/svg" width="40.546" height="32" viewBox="0 0 40.546 32">
  <g id="Group_747" data-name="Group 747" transform="translate(-34 -714)">
    <g id="chat-bubbles-with-ellipsis" transform="translate(34 710.76)">
      <path id="Path_360" data-name="Path 360" d="M34.912,9.67H33.8V21.876c0,1.9-1.107,3.619-3.325,3.619H8.743v.58c0,1.68,1.911,3.376,3.874,3.376H29.233L35.59,33.19l-.922-3.738h.244c1.961,0,2.846-1.692,2.846-3.376V12.568A2.616,2.616,0,0,0,34.912,9.67Z" transform="translate(2.788 2.05)" fill="#f90202"/>
      <path id="Path_361" data-name="Path 361" d="M30.02,3.24H4.777C2.556,3.24,0,5.213,0,7.115v15.3c0,1.751,2.166,3.016,4.243,3.211L2.891,30.757l8.662-5.1H30.02c2.221,0,4.271-1.347,4.271-3.247V7.115A4.359,4.359,0,0,0,30.02,3.24ZM8.628,16.154a2.28,2.28,0,1,1,2.28-2.28A2.28,2.28,0,0,1,8.628,16.154Zm8.517,0a2.28,2.28,0,1,1,2.28-2.28A2.28,2.28,0,0,1,17.145,16.154Zm8.519,0a2.28,2.28,0,1,1,2.28-2.28A2.281,2.281,0,0,1,25.664,16.154Z" transform="translate(0 0)" fill="#f90202"/>
    </g>
  </g>
</svg>
