<svg xmlns="http://www.w3.org/2000/svg" width="28" height="20" viewBox="0 0 28 20">
  <g id="Group_759" data-name="Group 759" transform="translate(-299 -498.182)">
    <rect id="Rectangle_11" data-name="Rectangle 11" width="28" height="20" transform="translate(299 498.182)" opacity="0"/>
    <g id="cast" transform="translate(304.727 500.545)">
      <g id="Group_113" data-name="Group 113" transform="translate(0 0)">
        <g id="Group_112" data-name="Group 112">
          <path id="Path_15" data-name="Path 15" d="M0,277.333v1.556a3.89,3.89,0,0,1,3.889,3.889H5.444A5.445,5.445,0,0,0,0,277.333Z" transform="translate(0 -268.777)" fill="#fff"/>
          <path id="Path_16" data-name="Path 16" d="M0,362.667V365H2.333A2.335,2.335,0,0,0,0,362.667Z" transform="translate(0 -351)" fill="#fff"/>
          <path id="Path_17" data-name="Path 17" d="M15.556,42.667h-14A1.555,1.555,0,0,0,0,44.223v2.333H1.556V44.223h14V55.111H10.111v1.556h5.444a1.555,1.555,0,0,0,1.556-1.556V44.223A1.555,1.555,0,0,0,15.556,42.667Z" transform="translate(0 -42.667)" fill="#fff"/>
          <path id="Path_18" data-name="Path 18" d="M0,192v1.556a7,7,0,0,1,7,7H8.556A8.556,8.556,0,0,0,0,192Z" transform="translate(0 -186.556)" fill="#fff"/>
        </g>
      </g>
    </g>
  </g>
</svg>
