<svg xmlns="http://www.w3.org/2000/svg" width="19.5" height="20.866" viewBox="0 0 19.5 20.866">
  <g id="Group_757" data-name="Group 757" transform="translate(-253 -503.566)">
    <path id="Path_441" data-name="Path 441" d="M11.055.25H6.945A27.417,27.417,0,0,0,3.608.367a3.717,3.717,0,0,0-2.26.982,3.717,3.717,0,0,0-.982,2.26A27.417,27.417,0,0,0,.25,6.945v6.947a24.177,24.177,0,0,0,.113,3.114,2.324,2.324,0,0,0,1.153,1.931,2.324,2.324,0,0,0,2.231-.287,24.16,24.16,0,0,0,2.518-1.834l.726-.571a15.73,15.73,0,0,1,1.348-1,1.252,1.252,0,0,1,.66-.24,1.252,1.252,0,0,1,.66.24,15.745,15.745,0,0,1,1.348,1l.726.571a24.177,24.177,0,0,0,2.518,1.834,2.324,2.324,0,0,0,2.231.287,2.325,2.325,0,0,0,1.153-1.931,24.179,24.179,0,0,0,.113-3.114V6.945a27.434,27.434,0,0,0-.117-3.337,3.717,3.717,0,0,0-.982-2.26,3.718,3.718,0,0,0-2.26-.982A27.418,27.418,0,0,0,11.055.25Z" transform="translate(253.75 504.316)" stroke="#fff" stroke-width="2"/>
  </g>
</svg>
