<svg xmlns="http://www.w3.org/2000/svg" width="26.698" height="32" viewBox="0 0 26.698 32">
  <g id="Group_753" data-name="Group 753" transform="translate(-167 -714)">
    <g id="user" transform="translate(167 714)">
      <path id="Path_411" data-name="Path 411" d="M94.739,15.415a7.458,7.458,0,0,0,5.45-2.258,7.457,7.457,0,0,0,2.258-5.449,7.459,7.459,0,0,0-2.258-5.449,7.706,7.706,0,0,0-10.9,0,7.458,7.458,0,0,0-2.258,5.449,7.457,7.457,0,0,0,2.258,5.45A7.459,7.459,0,0,0,94.739,15.415Zm0,0" transform="translate(-81.592 0)" fill="#f90202"/>
      <path id="Path_412" data-name="Path 412" d="M26.633,256.465a19.035,19.035,0,0,0-.259-2.022,15.931,15.931,0,0,0-.5-2.033,10.041,10.041,0,0,0-.836-1.9,7.155,7.155,0,0,0-1.26-1.642,5.556,5.556,0,0,0-1.81-1.137,6.256,6.256,0,0,0-2.311-.418,2.346,2.346,0,0,0-1.253.531c-.375.245-.815.528-1.3.841a7.477,7.477,0,0,1-1.688.744,6.556,6.556,0,0,1-4.13,0,7.46,7.46,0,0,1-1.687-.744c-.486-.31-.925-.594-1.306-.842a2.342,2.342,0,0,0-1.252-.531,6.248,6.248,0,0,0-2.311.419,5.552,5.552,0,0,0-1.811,1.137,7.156,7.156,0,0,0-1.26,1.642,10.06,10.06,0,0,0-.836,1.9,15.97,15.97,0,0,0-.5,2.033,18.97,18.97,0,0,0-.259,2.023c-.042.612-.064,1.248-.064,1.89a5.314,5.314,0,0,0,1.578,4.02,5.681,5.681,0,0,0,4.067,1.483H21.053a5.68,5.68,0,0,0,4.066-1.483,5.311,5.311,0,0,0,1.578-4.02c0-.645-.022-1.281-.065-1.89Zm0,0" transform="translate(0 -231.859)" fill="#f90202"/>
    </g>
  </g>
</svg>
