<svg xmlns="http://www.w3.org/2000/svg" width="26.889" height="22" viewBox="0 0 26.889 22">
  <g id="Group_117" data-name="Group 117" transform="translate(-308 -502)">
    <g id="cast" transform="translate(308 459.333)">
      <g id="Group_113" data-name="Group 113" transform="translate(0 42.667)">
        <g id="Group_112" data-name="Group 112">
          <path id="Path_15" data-name="Path 15" d="M0,277.333v2.444a6.113,6.113,0,0,1,6.111,6.111H8.556A8.557,8.557,0,0,0,0,277.333Z" transform="translate(0 -263.889)" fill="#fff"/>
          <path id="Path_16" data-name="Path 16" d="M0,362.667v3.667H3.667A3.67,3.67,0,0,0,0,362.667Z" transform="translate(0 -344.334)" fill="#fff"/>
          <path id="Path_17" data-name="Path 17" d="M24.444,42.667h-22A2.444,2.444,0,0,0,0,45.111v3.667H2.444V45.111h22V62.223H15.889v2.444h8.556a2.444,2.444,0,0,0,2.444-2.444V45.111A2.444,2.444,0,0,0,24.444,42.667Z" transform="translate(0 -42.667)" fill="#fff"/>
          <path id="Path_18" data-name="Path 18" d="M0,192v2.444a11,11,0,0,1,11,11h2.444A13.445,13.445,0,0,0,0,192Z" transform="translate(0 -183.444)" fill="#fff"/>
        </g>
      </g>
    </g>
  </g>
</svg>
