<svg xmlns="http://www.w3.org/2000/svg" width="24" height="24" viewBox="0 0 24 24">
  <g id="Group_763" data-name="Group 763" transform="translate(-322 -373)">
    <circle id="Ellipse_91" data-name="Ellipse 91" cx="12" cy="12" r="12" transform="translate(322 373)" fill="#f90202"/>
    <path id="Path_346" data-name="Path 346" d="M1.308,10.737a1.3,1.3,0,0,1-.66-.181A1.292,1.292,0,0,1,0,9.427V1.31A1.3,1.3,0,0,1,.648.181,1.3,1.3,0,0,1,1.95.169L9.165,4.227a1.308,1.308,0,0,1,0,2.281L1.95,10.568A1.314,1.314,0,0,1,1.308,10.737Z" transform="translate(330 380)"/>
  </g>
</svg>
