<svg xmlns="http://www.w3.org/2000/svg" width="24" height="24" viewBox="0 0 24 24">
  <g id="Group_116" data-name="Group 116" transform="translate(-224 -499)">
    <g id="share" transform="translate(223.996 499)">
      <path id="Path_20" data-name="Path 20" d="M145.793,6.98l-6.5-6.75A.75.75,0,0,0,138,.751V4h-.25a9.761,9.761,0,0,0-9.75,9.75v1.5a.74.74,0,0,0,.584.717.67.67,0,0,0,.165.02.776.776,0,0,0,.685-.427A8.2,8.2,0,0,1,136.815,11H138v3.25a.75.75,0,0,0,1.29.52l6.5-6.75a.75.75,0,0,0,0-1.041Zm0,0" transform="translate(-122)" fill="#fff"/>
      <path id="Path_21" data-name="Path 21" d="M21,105.34H3a3,3,0,0,1-3-3v-14a3,3,0,0,1,3-3H6a1,1,0,1,1,0,2H3a1,1,0,0,0-1,1v14a1,1,0,0,0,1,1H21a1,1,0,0,0,1-1v-8a1,1,0,1,1,2,0v8a3,3,0,0,1-3,3Zm0,0" transform="translate(0 -81.339)" fill="#fff"/>
    </g>
  </g>
</svg>
