<svg xmlns="http://www.w3.org/2000/svg" width="21.857" height="16" viewBox="0 0 21.857 16">
  <g id="heart" transform="translate(0 -49.2)">
    <path id="Path_391" data-name="Path 391" d="M45.2,69.7s-4.881-2.9-7.429-6.6c-1.476-2.143-1.69-4-1.262-5.452A4.612,4.612,0,0,1,42.772,54.7,9.519,9.519,0,0,1,45.2,55.964,9.519,9.519,0,0,1,47.629,54.7a4.612,4.612,0,0,1,6.262,2.952c.429,1.429.214,3.286-1.262,5.452C50.081,66.8,45.2,69.7,45.2,69.7Z" transform="translate(-34.153 -4.835)" fill="#f90202"/>
    <path id="Path_392" data-name="Path 392" d="M21.524,56.867H19.667a5.822,5.822,0,0,0,.4-4.119A4.913,4.913,0,0,0,15.4,49.2a5.632,5.632,0,0,0-2.024.381,10.76,10.76,0,0,0-2.31,1.167,11.418,11.418,0,0,0-2.31-1.167A5.632,5.632,0,0,0,6.738,49.2a4.913,4.913,0,0,0-4.667,3.548A5.84,5.84,0,0,0,2.6,57.224H.333a.333.333,0,0,0,0,.667H2.976l.357.571c2.167,3.119,6.857,6.5,7.714,6.714V65.2a.074.074,0,0,0,.048-.024h.048v-.024a26.442,26.442,0,0,0,7.619-6.714c.214-.31.4-.643.571-.929h2.19a.325.325,0,0,0,.333-.333A.321.321,0,0,0,21.524,56.867ZM2.69,52.938a4.259,4.259,0,0,1,4.024-3.071A5.479,5.479,0,0,1,8.5,50.2a9.3,9.3,0,0,1,2.333,1.214.357.357,0,0,0,.429,0A9.3,9.3,0,0,1,13.6,50.2a5.479,5.479,0,0,1,1.786-.333A4.259,4.259,0,0,1,19.4,52.938a5.428,5.428,0,0,1-.5,3.929H16.881l-.857-1.452a.33.33,0,0,0-.286-.167.312.312,0,0,0-.286.143l-.714,1.048L13.6,52.724a.352.352,0,0,0-.667,0L11,59.414,8.9,54.057a.339.339,0,0,0-.31-.214.319.319,0,0,0-.31.19l-1.643,3.19H3.381A5.485,5.485,0,0,1,2.69,52.938Zm15.5,5.143a26.707,26.707,0,0,1-7.143,6.381A27.152,27.152,0,0,1,3.9,58.081c-.048-.071-.071-.119-.119-.19H6.857a.372.372,0,0,0,.31-.19l1.381-2.714,2.19,5.6a.307.307,0,0,0,.31.214h.024a.329.329,0,0,0,.31-.238l1.9-6.548,1.024,3.31a.351.351,0,0,0,.619.1l.81-1.167.69,1.167a.363.363,0,0,0,.286.167h1.833C18.429,57.724,18.31,57.914,18.19,58.081Z" fill="#30323a"/>
  </g>
</svg>
