<svg xmlns="http://www.w3.org/2000/svg" width="22.499" height="18" viewBox="0 0 22.499 18">
  <path id="Icon_awesome-user-edit" data-name="Icon awesome-user-edit" d="M7.875,9a4.5,4.5,0,1,0-4.5-4.5A4.5,4.5,0,0,0,7.875,9Zm3.15,1.125h-.587a6.12,6.12,0,0,1-5.126,0H4.725A4.726,4.726,0,0,0,0,14.85v1.462A1.688,1.688,0,0,0,1.687,18h9.664a1.688,1.688,0,0,1-.091-.749L11.5,15.11l.042-.39.278-.278,2.718-2.718a4.677,4.677,0,0,0-3.512-1.6Zm1.593,5.108-.239,2.144A.56.56,0,0,0,13,18l2.141-.239,4.848-4.848-2.521-2.521-4.848,4.844Zm9.636-5.78L20.921,8.121a.842.842,0,0,0-1.188,0L18.4,9.45l-.144.144,2.524,2.521,1.469-1.469A.847.847,0,0,0,22.253,9.453Z" fill="#f90202"/>
</svg>
