<svg xmlns="http://www.w3.org/2000/svg" width="20.984" height="11.991" viewBox="0 0 20.984 11.991">
  <g id="Icon_ionic-ios-videocam" data-name="Icon ionic-ios-videocam" transform="translate(-2.25 -9)">
    <path id="Path_434" data-name="Path 434" d="M29.34,10.8a.8.8,0,0,0-.436.126l-4.052,2.557a.4.4,0,0,0-.187.337v3.56a.4.4,0,0,0,.187.337L28.9,20.276a.842.842,0,0,0,.436.126h.974a.4.4,0,0,0,.4-.4V11.2a.4.4,0,0,0-.4-.4Z" transform="translate(-7.483 -0.601)" fill="#fff"/>
    <path id="Path_435" data-name="Path 435" d="M13.562,20.991h-8.9A2.42,2.42,0,0,1,2.25,18.583V11.408A2.416,2.416,0,0,1,4.658,9h8.9a2.416,2.416,0,0,1,2.408,2.408v7.171A2.41,2.41,0,0,1,13.562,20.991Z" fill="#fff"/>
  </g>
</svg>
