<svg xmlns="http://www.w3.org/2000/svg" width="10.4" height="14" viewBox="0 0 10.4 14">
  <g id="Icon_ionic-ios-pause" data-name="Icon ionic-ios-pause" transform="translate(-40 -43.75)">
    <path id="Path_348" data-name="Path 348" d="M12.146,20.75H9.354A.352.352,0,0,1,9,20.4V7.1a.352.352,0,0,1,.354-.35h2.791a.352.352,0,0,1,.354.35V20.4A.352.352,0,0,1,12.146,20.75Z" transform="translate(31 37)"/>
    <path id="Path_349" data-name="Path 349" d="M24.521,20.75H21.729a.352.352,0,0,1-.354-.35V7.1a.352.352,0,0,1,.354-.35h2.791a.352.352,0,0,1,.354.35V20.4A.352.352,0,0,1,24.521,20.75Z" transform="translate(25.525 37)"/>
  </g>
</svg>
