<svg xmlns="http://www.w3.org/2000/svg" width="25" height="25" viewBox="0 0 25 25">
  <path id="Icon" d="M14,3A12,12,0,1,1,2,15,12,12,0,0,1,14,3ZM12.114,7.03a.982.982,0,0,0-.988,1V21.988a.992.992,0,1,0,1.984,0V8.026A.988.988,0,0,0,12.114,7.03Zm5.993,1.6a.975.975,0,0,0-.988.988V20.394a.988.988,0,0,0,1.976,0V9.62A.969.969,0,0,0,18.107,8.632Zm-9,.689a.974.974,0,0,0-.988.988v9.4a.975.975,0,0,0,.988.988.992.992,0,0,0,1-.988v-9.4A.992.992,0,0,0,9.109,9.321Zm6.01,1.536a.987.987,0,0,0-.988,1v6.309a.988.988,0,1,0,1.976,0V11.853A.992.992,0,0,0,15.119,10.856ZM21.1,11.994a.98.98,0,0,0-.988.988v4.051a.988.988,0,0,0,1.976,0V12.981A.975.975,0,0,0,21.1,11.994Zm-15,.656a.987.987,0,0,0-.988,1v2.723a.992.992,0,1,0,1.984,0V13.646A.988.988,0,0,0,6.1,12.649Z" transform="translate(-1.5 -2.5)" fill="#757575" stroke="rgba(0,0,0,0)" stroke-miterlimit="10" stroke-width="1" fill-rule="evenodd"/>
</svg>
