<svg xmlns="http://www.w3.org/2000/svg" width="14.4" height="18" viewBox="0 0 14.4 18">
  <g id="Icon_ionic-ios-pause" data-name="Icon ionic-ios-pause" transform="translate(-9 -6.75)">
    <path id="Path_348" data-name="Path 348" d="M13.044,24.75H9.456A.453.453,0,0,1,9,24.3V7.2a.453.453,0,0,1,.456-.45h3.589a.453.453,0,0,1,.456.45V24.3A.453.453,0,0,1,13.044,24.75Z"/>
    <path id="Path_349" data-name="Path 349" d="M25.419,24.75H21.831a.453.453,0,0,1-.456-.45V7.2a.453.453,0,0,1,.456-.45h3.589a.453.453,0,0,1,.456.45V24.3A.453.453,0,0,1,25.419,24.75Z" transform="translate(-2.475)"/>
  </g>
</svg>
