<svg xmlns="http://www.w3.org/2000/svg" width="23.999" height="22" viewBox="0 0 23.999 22">
  <g id="image" transform="translate(0 -0.492)">
    <path id="Path_180" data-name="Path 180" d="M6.249,158.943a3.744,3.744,0,0,1-3.542-2.551l-.035-.115a3.65,3.65,0,0,1-.173-1.084v-6.818l-2.426,8.1a2.271,2.271,0,0,0,1.592,2.755l15.463,4.141a2.294,2.294,0,0,0,.576.074,2.23,2.23,0,0,0,2.161-1.635l.9-2.865Zm0,0" transform="translate(0 -140.951)" fill="#fff"/>
    <path id="Path_181" data-name="Path 181" d="M151.32,68.492a2,2,0,1,0-2-2A2,2,0,0,0,151.32,68.492Zm0,0" transform="translate(-142.321 -61)" fill="#fff"/>
    <path id="Path_182" data-name="Path 182" d="M102.82.492h-15a2.5,2.5,0,0,0-2.5,2.5v11a2.5,2.5,0,0,0,2.5,2.5h15a2.5,2.5,0,0,0,2.5-2.5v-11a2.5,2.5,0,0,0-2.5-2.5Zm-15,2h15a.5.5,0,0,1,.5.5v7.1l-3.159-3.686A1.791,1.791,0,0,0,98.82,5.79a1.748,1.748,0,0,0-1.336.631L93.77,10.879,92.56,9.672a1.755,1.755,0,0,0-2.48,0l-2.76,2.759V2.992A.5.5,0,0,1,87.82,2.492Zm0,0" transform="translate(-81.321)" fill="#fff"/>
  </g>
</svg>
