<svg xmlns="http://www.w3.org/2000/svg" width="22" height="22" viewBox="0 0 22 22">
  <g id="interview" transform="translate(-0.001 0)">
    <path id="Path_429" data-name="Path 429" d="M6.185,247.094a3.406,3.406,0,1,0-4.177,0A4.092,4.092,0,0,0,0,250.62V252a.644.644,0,0,0,.645.645h6.9A.645.645,0,0,0,8.193,252V250.62a4.092,4.092,0,0,0-2.008-3.526ZM1.98,244.406A2.117,2.117,0,1,1,4.1,246.523a2.119,2.119,0,0,1-2.117-2.117ZM6.9,251.356H1.29v-.736a2.807,2.807,0,1,1,5.614,0v.736Zm0,0" transform="translate(0 -230.645)" fill="#fff"/>
    <path id="Path_430" data-name="Path 430" d="M203.8,0h-8.284A2.714,2.714,0,0,0,192.8,2.715V15.142a.645.645,0,0,0,1.031.516l2.59-1.942H203.8A2.714,2.714,0,0,0,206.516,11V2.715A2.714,2.714,0,0,0,203.8,0Zm1.427,11a1.425,1.425,0,0,1-1.427,1.427h-7.594a.645.645,0,0,0-.387.129l-1.73,1.3V2.715a1.425,1.425,0,0,1,1.427-1.427H203.8a1.425,1.425,0,0,1,1.427,1.427Zm0,0" transform="translate(-184.516)" fill="#fff"/>
    <path id="Path_431" data-name="Path 431" d="M264.614,80.332h-6.9a.645.645,0,0,0,0,1.289h6.9a.645.645,0,0,0,0-1.289Zm0,0" transform="translate(-246.02 -76.881)" fill="#fff"/>
    <path id="Path_432" data-name="Path 432" d="M264.614,144.6h-6.9a.645.645,0,1,0,0,1.289h6.9a.645.645,0,1,0,0-1.289Zm0,0" transform="translate(-246.02 -138.389)" fill="#fff"/>
    <path id="Path_433" data-name="Path 433" d="M261.162,208.867h-3.452a.645.645,0,1,0,0,1.289h3.452a.645.645,0,1,0,0-1.289Zm0,0" transform="translate(-246.02 -199.893)" fill="#fff"/>
  </g>
</svg>
