<svg xmlns="http://www.w3.org/2000/svg" width="15.013" height="16" viewBox="0 0 15.013 16">
  <g id="live-music" transform="translate(-15.781 0)">
    <circle id="Ellipse_95" data-name="Ellipse 95" cx="1.298" cy="1.298" r="1.298" transform="matrix(1, -0.026, 0.026, 1, 21.451, 1.371)" fill="#f90202"/>
    <path id="Path_379" data-name="Path 379" d="M104.237,5.689l1.545-1.968a.626.626,0,0,0-.985-.773h0l-1.338,1.7-1.881-.286a4.166,4.166,0,0,0-.625-.047H99.046L97.054,2.91l-.7-2.442A.636.636,0,0,0,95.6.018a.626.626,0,0,0-.452.78l.764,2.668a.626.626,0,0,0,.24.339l1.841,1.3c0,.029,0,.058,0,.088V9.4L97.1,11.669a.751.751,0,0,0-.047.187l-.381,3.306a.751.751,0,1,0,1.493.172l.37-3.209.951-2.432h.338l1.493,5.744a.751.751,0,0,0,1.454-.378L101.3,9.408v-3.8l2.39.314a.625.625,0,0,0,.542-.238Z" transform="translate(-76.859 0)" fill="#f90202"/>
    <path id="Path_380" data-name="Path 380" d="M317.387,13.721c.2,0,.457-.1.42-.282V12.1l1.007-.352v1.08c-.2-.016-.481.067-.481.249,0,.139.19.251.424.251s.424-.112.424-.251h.006V11.518a.21.21,0,0,0-.28-.2l-1.323.463a.223.223,0,0,0-.149.211V13.22c-.2-.013-.472.07-.472.25C316.963,13.609,317.153,13.721,317.387,13.721Z" transform="translate(-291.761 -10.954)" fill="#f90202"/>
    <path id="Path_381" data-name="Path 381" d="M420.18,169.9l-.894.313V171.6c-.2-.013-.472.07-.472.25,0,.139.19.251.424.251.2,0,.457-.1.42-.282v-1.34l.292-.1A.373.373,0,0,0,420.18,169.9Z" transform="translate(-390.427 -164.59)" fill="#f90202"/>
    <path id="Path_382" data-name="Path 382" d="M27.589,95.111l-.894.313v1.385c-.2-.013-.472.07-.472.25,0,.139.19.251.424.251.2,0,.457-.1.42-.282v-1.34l.292-.1A.373.373,0,0,0,27.589,95.111Z" transform="translate(-10.116 -92.136)" fill="#f90202"/>
    <path id="Path_383" data-name="Path 383" d="M436.312,24.028a.673.673,0,0,1,.269.269.064.064,0,0,0,.111,0,.673.673,0,0,1,.269-.269.064.064,0,0,0,0-.111.672.672,0,0,1-.269-.269.064.064,0,0,0-.111,0,.673.673,0,0,1-.269.269A.064.064,0,0,0,436.312,24.028Z" transform="translate(-407.345 -22.876)" fill="#f90202"/>
    <path id="Path_384" data-name="Path 384" d="M16.194,71.927a.673.673,0,0,1,.269-.269.064.064,0,0,0,0-.111.673.673,0,0,1-.269-.269.064.064,0,0,0-.111,0,.673.673,0,0,1-.269.269.064.064,0,0,0,0,.111.673.673,0,0,1,.269.269A.064.064,0,0,0,16.194,71.927Z" transform="translate(0 -69.017)" fill="#f90202"/>
    <path id="Path_385" data-name="Path 385" d="M465.158,73.152a.527.527,0,0,1-.21-.21.05.05,0,0,0-.087,0,.527.527,0,0,1-.21.21.05.05,0,0,0,0,.087.527.527,0,0,1,.21.21.05.05,0,0,0,.087,0,.527.527,0,0,1,.21-.21A.05.05,0,0,0,465.158,73.152Z" transform="translate(-434.803 -70.635)" fill="#f90202"/>
    <path id="Path_386" data-name="Path 386" d="M65.964,48.679a.527.527,0,0,1-.21-.21.05.05,0,0,0-.087,0,.527.527,0,0,1-.21.21.05.05,0,0,0,0,.087.527.527,0,0,1,.21.21.05.05,0,0,0,.087,0,.527.527,0,0,1,.21-.21A.05.05,0,0,0,65.964,48.679Z" transform="translate(-48.096 -46.928)" fill="#f90202"/>
    <path id="Path_387" data-name="Path 387" d="M483.381,36.411a.376.376,0,0,1-.15-.15.035.035,0,0,0-.062,0,.376.376,0,0,1-.15.15.035.035,0,0,0,0,.062.375.375,0,0,1,.15.15.035.035,0,0,0,.062,0,.376.376,0,0,1,.15-.15A.035.035,0,0,0,483.381,36.411Z" transform="translate(-452.606 -35.109)" fill="#f90202"/>
    <path id="Path_388" data-name="Path 388" d="M27.762,35.315a.375.375,0,0,1,.15.15.035.035,0,0,0,.062,0,.375.375,0,0,1,.15-.15.035.035,0,0,0,0-.062.375.375,0,0,1-.15-.15.035.035,0,0,0-.062,0,.375.375,0,0,1-.15.15A.035.035,0,0,0,27.762,35.315Z" transform="translate(-11.588 -33.987)" fill="#f90202"/>
  </g>
</svg>
