<svg xmlns="http://www.w3.org/2000/svg" width="11.631" height="18" viewBox="0 0 11.631 18">
  <g id="microphone-with-wire" transform="translate(-78.259)">
    <path id="Path_419" data-name="Path 419" d="M230.641,0a2.771,2.771,0,1,1-2.771,2.772A2.771,2.771,0,0,1,230.641,0Z" transform="translate(-143.523)" fill="#f90202"/>
    <path id="Path_420" data-name="Path 420" d="M130.461,109.214a.764.764,0,0,0,.577-.266l4.665-4.3a3.2,3.2,0,0,1-2.109-1.688l-3.685,4.906a.938.938,0,0,0-.216.575A.769.769,0,0,0,130.461,109.214Z" transform="translate(-49.342 -98.775)" fill="#f90202"/>
    <path id="Path_421" data-name="Path 421" d="M78.878,243.661c1.55,1.191,3.933-1.065,4.022-1.151.026-.022,2.539-2.235,3.711-.925a1.217,1.217,0,0,1,.314.965c-.123,1.4-2.062,3.206-2.8,3.785a.424.424,0,0,0,.523.668c.121-.095,2.94-2.329,3.12-4.377a2.05,2.05,0,0,0-.526-1.606c-.517-.578-1.493-1.094-3.206-.271a8.106,8.106,0,0,0-1.713,1.139c-.5.482-2.124,1.72-2.93,1.1a.685.685,0,0,1-.284-.513,4.028,4.028,0,0,1,1.111-2.258l.869-.3s-.174-.019-.584-.387a1.663,1.663,0,0,1-.485-.717l-.391.795c-.279.311-1.469,1.717-1.365,2.941A1.535,1.535,0,0,0,78.878,243.661Z" transform="translate(0 -229.093)" fill="#f90202"/>
  </g>
</svg>
