<svg xmlns="http://www.w3.org/2000/svg" width="18" height="18" viewBox="0 0 18 18">
  <path id="Path_442" data-name="Path 442" d="M1.621,18c.862,0,1.882-.64,3.122-1.956a3.855,3.855,0,0,1,2.765-1.208H10.5a3.855,3.855,0,0,1,2.765,1.208C14.5,17.36,15.524,18,16.385,18a1.409,1.409,0,0,0,1.3-.916A4.334,4.334,0,0,0,18,15.3C18,12.244,16.025,6.363,13,6.363a2.652,2.652,0,0,0-1.718.548,2.614,2.614,0,0,1-1.132.49,2.479,2.479,0,0,0,.439-1.3A3.537,3.537,0,0,0,9.351,3.857a2.7,2.7,0,0,1-.875-1.485A2.592,2.592,0,0,1,9.351.923a.527.527,0,0,0-.7-.793A3.539,3.539,0,0,0,7.421,2.373,3.654,3.654,0,0,0,8.655,4.65,2.592,2.592,0,0,1,9.53,6.1a2.352,2.352,0,0,1-.74,1.318H7.974a2.612,2.612,0,0,1-1.246-.506,2.652,2.652,0,0,0-1.718-.548C1.981,6.363,0,12.244,0,15.3,0,17.736,1.138,18,1.621,18Zm11.6-5.309a.527.527,0,1,1,.527-.527A.527.527,0,0,1,13.222,12.691Zm1.055-2.109a.527.527,0,1,1-.527.527A.527.527,0,0,1,14.276,10.582ZM13.222,9.527a.527.527,0,1,1-.527.527A.527.527,0,0,1,13.222,9.527Zm-1.055,1.055a.527.527,0,1,1-.527.527A.527.527,0,0,1,12.167,10.582Zm-4.219,0h2.109a.527.527,0,0,1,0,1.055H7.948a.527.527,0,1,1,0-1.055Zm-4.219,0h.527v-.527a.527.527,0,0,1,1.055,0v.527h.527a.527.527,0,0,1,0,1.055H5.312v.527a.527.527,0,1,1-1.055,0v-.527H3.73a.527.527,0,0,1,0-1.055Z" transform="translate(-0.003 0.001)" fill="#f90202"/>
</svg>
