<svg id="payment" xmlns="http://www.w3.org/2000/svg" width="23" height="23" viewBox="0 0 23 23">
  <path id="Path_401" data-name="Path 401" d="M127.487,288.939l-2.549,3.333a2.7,2.7,0,0,1-2.141,1.058h-4.733a.674.674,0,1,1,0-1.348h4.1a1.6,1.6,0,0,0,1.6-1.6,1.572,1.572,0,0,0-1.572-1.542H117.48a3.9,3.9,0,0,0-4.973-.363l-.508.363v7.637h11.718a4.043,4.043,0,0,0,3.4-1.857l2.63-4.091a1.383,1.383,0,0,0-2.262-1.588Z" transform="translate(-106.969 -274.822)" fill="#fff"/>
  <path id="Path_402" data-name="Path 402" d="M3.01,282H.674a.674.674,0,0,0-.674.674v8.984a.674.674,0,0,0,.674.674H3.01a.674.674,0,0,0,.674-.674v-8.984A.674.674,0,0,0,3.01,282Z" transform="translate(0 -269.332)" fill="#fff"/>
  <path id="Path_403" data-name="Path 403" d="M280.979,82.9a.669.669,0,0,0-.239.4.465.465,0,0,0,.116.451c.037.029.079.058.123.087Z" transform="translate(-268.118 -79.181)" fill="#fff"/>
  <path id="Path_404" data-name="Path 404" d="M177.615,11.23A5.615,5.615,0,1,0,172,5.615,5.622,5.622,0,0,0,177.615,11.23Zm-1.7-3.779a.449.449,0,0,1,.622-.13,1.36,1.36,0,0,0,.6.256V5.68a3.313,3.313,0,0,1-.677-.4,1.344,1.344,0,0,1-.444-1.324,1.513,1.513,0,0,1,1.038-1.186l.084-.024v-.28a.449.449,0,0,1,.9,0V2.7a1.56,1.56,0,0,1,.894.462.449.449,0,0,1-.675.593.619.619,0,0,0-.219-.13V5.078l.238.086a1.608,1.608,0,0,1,1.093,1.819,1.827,1.827,0,0,1-1.331,1.456V8.76a.449.449,0,0,1-.9,0V8.481a2.175,2.175,0,0,1-1.09-.408A.449.449,0,0,1,175.915,7.451Z" transform="translate(-164.273)" fill="#fff"/>
  <path id="Path_405" data-name="Path 405" d="M306.754,135.138a.7.7,0,0,0-.445-.8v1.443A.928.928,0,0,0,306.754,135.138Z" transform="translate(-292.549 -128.304)" fill="#fff"/>
</svg>
