<svg xmlns="http://www.w3.org/2000/svg" width="26.182" height="24" viewBox="0 0 26.182 24">
  <g id="rotate" transform="translate(3 -21.333)">
    <g id="Group_416" data-name="Group 416" transform="translate(-3 21.333)">
      <g id="Group_415" data-name="Group 415" transform="translate(0 0)">
        <path id="Path_175" data-name="Path 175" d="M22.909,34.76V25.7a2.184,2.184,0,0,0-2.182-2.182H18.452a.549.549,0,0,1-.386-.16l-1.543-1.543a1.626,1.626,0,0,0-1.157-.479H10.815a1.626,1.626,0,0,0-1.157.479L8.116,23.355a.549.549,0,0,1-.386.16H5.454A2.184,2.184,0,0,0,3.273,25.7v9.065C.6,35.886,0,37.191,0,38.108c0,2.529,4.407,4.491,10.53,4.849l-.672.672a.546.546,0,0,0,0,.772l.772.772a.546.546,0,0,0,.772,0L13.874,42.7a1.092,1.092,0,0,0,0-1.544l-2.229-2.229a.546.546,0,0,0-.772,0L10.1,39.7a.546.546,0,0,0,0,.772l.289.289c-5.451-.375-8.138-2.09-8.206-2.65.014-.117.343-.621,1.605-1.2a2.168,2.168,0,0,0,1.666.789H20.727a2.168,2.168,0,0,0,1.666-.79C23.65,37.487,23.986,38,24,38.095c-.078.413-2,2.042-7.245,2.585l-.543.056a.546.546,0,0,0-.487.6l.113,1.086a.546.546,0,0,0,.6.487l.543-.056c5.5-.57,9.2-2.476,9.2-4.743C26.182,37.189,25.583,35.881,22.909,34.76Zm-9.818-.336a4.364,4.364,0,1,1,4.364-4.364A4.369,4.369,0,0,1,13.091,34.424Zm6.545-6.545a1.091,1.091,0,1,1,1.091-1.091A1.092,1.092,0,0,1,19.636,27.878Z" transform="translate(0 -21.333)" fill="#fff"/>
        <circle id="Ellipse_73" data-name="Ellipse 73" cx="3.273" cy="3.273" r="3.273" transform="translate(9.818 5.455)" fill="#fff"/>
      </g>
    </g>
  </g>
</svg>
