<svg xmlns="http://www.w3.org/2000/svg" width="18" height="18" viewBox="0 0 18 18">
  <g id="share" transform="translate(-0.004 0)">
    <path id="Path_20" data-name="Path 20" d="M141.346,5.235,136.471.172a.563.563,0,0,0-.967.391V3h-.187A7.321,7.321,0,0,0,128,10.313v1.125a.555.555,0,0,0,.438.538.5.5,0,0,0,.124.015.582.582,0,0,0,.514-.32,6.152,6.152,0,0,1,5.533-3.42h.891v2.437a.563.563,0,0,0,.967.39l4.875-5.062a.563.563,0,0,0,0-.781Zm0,0" transform="translate(-123.5 0)" fill="#fefefe"/>
    <path id="Path_21" data-name="Path 21" d="M15.754,100.34H2.254A2.253,2.253,0,0,1,0,98.09V87.59a2.253,2.253,0,0,1,2.25-2.25H4.5a.75.75,0,1,1,0,1.5H2.254a.75.75,0,0,0-.75.75v10.5a.75.75,0,0,0,.75.75h13.5a.75.75,0,0,0,.75-.75v-6a.75.75,0,1,1,1.5,0v6a2.253,2.253,0,0,1-2.25,2.25Zm0,0" transform="translate(0 -82.339)" fill="#fefefe"/>
  </g>
</svg>
