<svg xmlns="http://www.w3.org/2000/svg" width="18" height="18" viewBox="0 0 18 18">
  <g id="sport" transform="translate(0)">
    <path id="Path_413" data-name="Path 413" d="M3.511,10.2A3.942,3.942,0,0,1,5.988,5.888l.515-.2A4.974,4.974,0,0,1,9.876,1.866,3.95,3.95,0,0,0,7.329.2,12.8,12.8,0,0,0,5.37,0a12.817,12.817,0,0,0-2,.213A3.91,3.91,0,0,0,.248,3.395a17.713,17.713,0,0,0,0,5.906,3.873,3.873,0,0,0,1.53,2.487H3.851C3.831,11.72,3.588,10.664,3.511,10.2Z" fill="#f90202"/>
    <path id="Path_414" data-name="Path 414" d="M122.865,367.069a6.867,6.867,0,0,1-1.554-1.792v2.489h3.063A3.655,3.655,0,0,1,122.865,367.069Z" transform="translate(-117.046 -352.435)" fill="#f90202"/>
    <path id="Path_415" data-name="Path 415" d="M55,365.277h1.277v2.489H55Z" transform="translate(-53.063 -352.435)" fill="#f90202"/>
    <path id="Path_416" data-name="Path 416" d="M137.5,72.905a12.2,12.2,0,0,0-3.935-.012l-.02,0a3.949,3.949,0,0,0-3.177,3.225,10.91,10.91,0,0,0,.238,4.8H129.56a11.832,11.832,0,0,1-.332-3.9,2.916,2.916,0,0,0-1.835,3.195c.073.436.163.875.269,1.305a4.6,4.6,0,0,0,1.654,2.485,3.48,3.48,0,0,0,1.388.472H139.1a3.873,3.873,0,0,0,1.53-2.487,17.713,17.713,0,0,0,0-5.906A3.889,3.889,0,0,0,137.5,72.905Z" transform="translate(-122.876 -70.182)" fill="#f90202"/>
    <path id="Path_417" data-name="Path 417" d="M238.358,436.672h5.355v2.648h-5.355Z" transform="translate(-229.978 -421.32)" fill="#f90202"/>
    <path id="Path_418" data-name="Path 418" d="M420.682,436.672h1.277v2.648h-1.277Z" transform="translate(-405.892 -421.32)" fill="#f90202"/>
  </g>
</svg>
